# xmcd
#
# Track frame offsets:
#	150
#	16413
#	33036
#	49881
#	64271
#	76045
#	89017
#	105152
#	119440
#	137120
#
# Disc length: 2023 seconds
#
# Revision: 0
# Processed by: cddbd v1.5PL3 Copyright (c) Steve Scherf et al.
# Submitted via: dBpowerAMP V4.0
#
DISCID=7907e50a
DTITLE=Joan Sebastian - Joyas Musicales Vol.3
DYEAR=2003
DGENRE=Latin
TTITLE0=De Piedra O De Azucar
TTITLE1=Como Guitarra En Serenata
TTITLE2=Rumores
TTITLE3=Placer O Castigo
TTITLE4=Y Que Te Haga Feliz
TTITLE5=Final, Final
TTITLE6=Testigo
TTITLE7=Mi Complice
TTITLE8=Una Noche Mas
TTITLE9=Si Hubiera Sabido Ayer
EXTD=Norteno Star Joan Sebastian Has Camped Out On The Top 40 For Several Years.
EXTT0=
EXTT1=
EXTT2=
EXTT3=
EXTT4=
EXTT5=
EXTT6=
EXTT7=
EXTT8=
EXTT9=
PLAYORDER=
